# xmcd
#
# Track frame offsets:
#	150
#	20915
#	34095
#	49239
#	69220
#	82940
#	107947
#	127109
#	145284
#	167328
#	190131
#	208585
#	216076
#	228668
#	241594
#
# Disc length: 3447 seconds
# Revision: 0
# Processed by: cddbd v1.5.2PL0 Copyright (c) Steve Scherf et al.
# Submitted via: dBpowerAMP V12.0
#
DISCID=d10d750f
DTITLE=Phil Bates and Mik Kaminski Featuring Tina McBain - Beatles, Blues and Blue Violin
DYEAR=1900
DGENRE=
TTITLE0=Norwegian Wood
TTITLE1=In My Life
TTITLE2=Can't Buy Me Love
TTITLE3=Can't Get It Out of My Head
TTITLE4=Nowhere Man
TTITLE5=Old Love
TTITLE6=Come Together
TTITLE7=Love Song
TTITLE8=It Doesn't Get Any Better Than This
TTITLE9=I Would Rather Go Blind
TTITLE10=I Wanna Hold Your Hand
TTITLE11=Blackbird
TTITLE12=Golden Slumbers
TTITLE13=Got to Get You into My Life
TTITLE14=Eleanor Rigby
EXTD=
EXTT0=
EXTT1=
EXTT2=
EXTT3=
EXTT4=
EXTT5=
EXTT6=
EXTT7=
EXTT8=
EXTT9=
EXTT10=
EXTT11=
EXTT12=
EXTT13=
EXTT14=
PLAYORDER=
